<svg width="74" height="39" viewBox="0 0 74 39" fill="none" xmlns="http://www.w3.org/2000/svg">
<path d="M15.544 3.72V6.216H11.032V8.2H14.36V10.584H11.032V15H7.896V3.72H15.544ZM18.4488 5.192C17.8941 5.192 17.4461 5.04267 17.1048 4.744C16.7741 4.43467 16.6088 4.05067 16.6088 3.592C16.6088 3.12267 16.7741 2.73333 17.1048 2.424C17.4461 2.11467 17.8941 1.96 18.4488 1.96C18.9928 1.96 19.4301 2.11467 19.7608 2.424C20.1021 2.73333 20.2728 3.12267 20.2728 3.592C20.2728 4.05067 20.1021 4.43467 19.7608 4.744C19.4301 5.04267 18.9928 5.192 18.4488 5.192ZM20.0008 6.024V15H16.8648V6.024H20.0008ZM27.6586 5.944C28.6933 5.944 29.5146 6.29067 30.1226 6.984C30.7306 7.66667 31.0346 8.59467 31.0346 9.768V15H27.8986V10.184C27.8986 9.672 27.7653 9.272 27.4986 8.984C27.232 8.68533 26.8746 8.536 26.4266 8.536C25.9573 8.536 25.5893 8.68533 25.3226 8.984C25.056 9.272 24.9226 9.672 24.9226 10.184V15H21.7866V6.024H24.9226V7.304C25.2 6.89867 25.5733 6.57333 26.0426 6.328C26.512 6.072 27.0506 5.944 27.6586 5.944ZM32.2434 10.504C32.2434 9.576 32.4087 8.76533 32.7394 8.072C33.0807 7.37867 33.5394 6.84533 34.1154 6.472C34.702 6.09867 35.3527 5.912 36.0674 5.912C36.686 5.912 37.2194 6.03467 37.6674 6.28C38.1154 6.52533 38.462 6.856 38.7074 7.272V6.024H41.8434V15H38.7074V13.752C38.462 14.168 38.11 14.4987 37.6514 14.744C37.2034 14.9893 36.6754 15.112 36.0674 15.112C35.3527 15.112 34.702 14.9253 34.1154 14.552C33.5394 14.1787 33.0807 13.6453 32.7394 12.952C32.4087 12.248 32.2434 11.432 32.2434 10.504ZM38.7074 10.504C38.7074 9.928 38.5474 9.47467 38.2274 9.144C37.918 8.81333 37.534 8.648 37.0754 8.648C36.606 8.648 36.2167 8.81333 35.9074 9.144C35.598 9.464 35.4434 9.91733 35.4434 10.504C35.4434 11.08 35.598 11.5387 35.9074 11.88C36.2167 12.2107 36.606 12.376 37.0754 12.376C37.534 12.376 37.918 12.2107 38.2274 11.88C38.5474 11.5493 38.7074 11.0907 38.7074 10.504ZM49.5024 5.944C50.537 5.944 51.3584 6.29067 51.9664 6.984C52.5744 7.66667 52.8784 8.59467 52.8784 9.768V15H49.7424V10.184C49.7424 9.672 49.609 9.272 49.3424 8.984C49.0757 8.68533 48.7184 8.536 48.2704 8.536C47.801 8.536 47.433 8.68533 47.1664 8.984C46.8997 9.272 46.7664 9.672 46.7664 10.184V15H43.6304V6.024H46.7664V7.304C47.0437 6.89867 47.417 6.57333 47.8864 6.328C48.3557 6.072 48.8944 5.944 49.5024 5.944ZM54.0871 10.504C54.0871 9.576 54.2791 8.76533 54.6631 8.072C55.0471 7.37867 55.5805 6.84533 56.2631 6.472C56.9565 6.09867 57.7458 5.912 58.6311 5.912C59.7725 5.912 60.7325 6.22667 61.5111 6.856C62.2898 7.47467 62.7911 8.344 63.0151 9.464H59.6871C59.4951 8.87733 59.1218 8.584 58.5671 8.584C58.1725 8.584 57.8578 8.74933 57.6231 9.08C57.3991 9.4 57.2871 9.87467 57.2871 10.504C57.2871 11.1333 57.3991 11.6133 57.6231 11.944C57.8578 12.2747 58.1725 12.44 58.5671 12.44C59.1325 12.44 59.5058 12.1467 59.6871 11.56H63.0151C62.7911 12.6693 62.2898 13.5387 61.5111 14.168C60.7325 14.7973 59.7725 15.112 58.6311 15.112C57.7458 15.112 56.9565 14.9253 56.2631 14.552C55.5805 14.1787 55.0471 13.6453 54.6631 12.952C54.2791 12.2587 54.0871 11.4427 54.0871 10.504ZM72.8939 10.408C72.8939 10.6533 72.8779 10.8987 72.8459 11.144H66.9099C66.9419 11.6347 67.0752 12.0027 67.3099 12.248C67.5552 12.4827 67.8645 12.6 68.2379 12.6C68.7605 12.6 69.1339 12.3653 69.3579 11.896H72.7019C72.5632 12.5147 72.2912 13.0693 71.8859 13.56C71.4912 14.04 70.9899 14.4187 70.3819 14.696C69.7739 14.9733 69.1019 15.112 68.3659 15.112C67.4805 15.112 66.6912 14.9253 65.9979 14.552C65.3152 14.1787 64.7765 13.6453 64.3819 12.952C63.9979 12.2587 63.8059 11.4427 63.8059 10.504C63.8059 9.56533 63.9979 8.75467 64.3819 8.072C64.7659 7.37867 65.2992 6.84533 65.9819 6.472C66.6752 6.09867 67.4699 5.912 68.3659 5.912C69.2512 5.912 70.0352 6.09333 70.7179 6.456C71.4005 6.81867 71.9339 7.34133 72.3179 8.024C72.7019 8.696 72.8939 9.49067 72.8939 10.408ZM69.6939 9.624C69.6939 9.24 69.5659 8.94133 69.3099 8.728C69.0539 8.504 68.7339 8.392 68.3499 8.392C67.9659 8.392 67.6512 8.49867 67.4059 8.712C67.1605 8.91467 67.0005 9.21867 66.9259 9.624H69.6939ZM16.392 22.72V25.216H13.384V34H10.248V25.216H7.272V22.72H16.392ZM20.6883 26.608C21.0403 26.096 21.4669 25.6907 21.9683 25.392C22.4696 25.0933 23.0083 24.944 23.5843 24.944V28.288H22.7043C22.0216 28.288 21.5149 28.4213 21.1843 28.688C20.8536 28.9547 20.6883 29.4187 20.6883 30.08V34H17.5523V25.024H20.6883V26.608ZM24.1965 29.504C24.1965 28.576 24.3618 27.7653 24.6925 27.072C25.0338 26.3787 25.4925 25.8453 26.0685 25.472C26.6552 25.0987 27.3058 24.912 28.0205 24.912C28.6392 24.912 29.1725 25.0347 29.6205 25.28C30.0685 25.5253 30.4152 25.856 30.6605 26.272V25.024H33.7965V34H30.6605V32.752C30.4152 33.168 30.0632 33.4987 29.6045 33.744C29.1565 33.9893 28.6285 34.112 28.0205 34.112C27.3058 34.112 26.6552 33.9253 26.0685 33.552C25.4925 33.1787 25.0338 32.6453 24.6925 31.952C24.3618 31.248 24.1965 30.432 24.1965 29.504ZM30.6605 29.504C30.6605 28.928 30.5005 28.4747 30.1805 28.144C29.8712 27.8133 29.4872 27.648 29.0285 27.648C28.5592 27.648 28.1698 27.8133 27.8605 28.144C27.5512 28.464 27.3965 28.9173 27.3965 29.504C27.3965 30.08 27.5512 30.5387 27.8605 30.88C28.1698 31.2107 28.5592 31.376 29.0285 31.376C29.4872 31.376 29.8712 31.2107 30.1805 30.88C30.5005 30.5493 30.6605 30.0907 30.6605 29.504ZM35.0715 29.504C35.0715 28.576 35.2635 27.7653 35.6475 27.072C36.0315 26.3787 36.5648 25.8453 37.2475 25.472C37.9408 25.0987 38.7302 24.912 39.6155 24.912C40.7568 24.912 41.7168 25.2267 42.4955 25.856C43.2742 26.4747 43.7755 27.344 43.9995 28.464H40.6715C40.4795 27.8773 40.1062 27.584 39.5515 27.584C39.1568 27.584 38.8422 27.7493 38.6075 28.08C38.3835 28.4 38.2715 28.8747 38.2715 29.504C38.2715 30.1333 38.3835 30.6133 38.6075 30.944C38.8422 31.2747 39.1568 31.44 39.5515 31.44C40.1168 31.44 40.4902 31.1467 40.6715 30.56H43.9995C43.7755 31.6693 43.2742 32.5387 42.4955 33.168C41.7168 33.7973 40.7568 34.112 39.6155 34.112C38.7302 34.112 37.9408 33.9253 37.2475 33.552C36.5648 33.1787 36.0315 32.6453 35.6475 31.952C35.2635 31.2587 35.0715 30.4427 35.0715 29.504ZM50.9183 34L48.4383 30.32V34H45.3023V22.16H48.4383V28.544L50.9183 25.024H54.6783L51.1423 29.536L54.7423 34H50.9183ZM64.2376 29.408C64.2376 29.6533 64.2216 29.8987 64.1896 30.144H58.2536C58.2856 30.6347 58.419 31.0027 58.6536 31.248C58.899 31.4827 59.2083 31.6 59.5816 31.6C60.1043 31.6 60.4776 31.3653 60.7016 30.896H64.0456C63.907 31.5147 63.635 32.0693 63.2296 32.56C62.835 33.04 62.3336 33.4187 61.7256 33.696C61.1176 33.9733 60.4456 34.112 59.7096 34.112C58.8243 34.112 58.035 33.9253 57.3416 33.552C56.659 33.1787 56.1203 32.6453 55.7256 31.952C55.3416 31.2587 55.1496 30.4427 55.1496 29.504C55.1496 28.5653 55.3416 27.7547 55.7256 27.072C56.1096 26.3787 56.643 25.8453 57.3256 25.472C58.019 25.0987 58.8136 24.912 59.7096 24.912C60.595 24.912 61.379 25.0933 62.0616 25.456C62.7443 25.8187 63.2776 26.3413 63.6616 27.024C64.0456 27.696 64.2376 28.4907 64.2376 29.408ZM61.0376 28.624C61.0376 28.24 60.9096 27.9413 60.6536 27.728C60.3976 27.504 60.0776 27.392 59.6936 27.392C59.3096 27.392 58.995 27.4987 58.7496 27.712C58.5043 27.9147 58.3443 28.2187 58.2696 28.624H61.0376ZM68.657 26.608C69.009 26.096 69.4357 25.6907 69.937 25.392C70.4383 25.0933 70.977 24.944 71.553 24.944V28.288H70.673C69.9903 28.288 69.4837 28.4213 69.153 28.688C68.8223 28.9547 68.657 29.4187 68.657 30.08V34H65.521V25.024H68.657V26.608Z" fill="#2C18B0"/>
<rect y="2" width="3" height="32" rx="1.5" fill="#2C18B0"/>
</svg>
