<svg width="86" height="39" viewBox="0 0 86 39" fill="none" xmlns="http://www.w3.org/2000/svg">
<path d="M11.032 6.232V8.072H14.632V10.456H11.032V12.488H15.112V15H7.896V3.72H15.112V6.232H11.032ZM22.2616 15L20.6456 12.744L19.3656 15H15.9256L18.9176 10.344L15.7976 6.024H19.3176L20.9336 8.28L22.2296 6.024H25.6696L22.6136 10.6L25.7816 15H22.2616ZM29.8445 7.272C30.0898 6.856 30.4365 6.52533 30.8845 6.28C31.3325 6.03467 31.8605 5.912 32.4685 5.912C33.1832 5.912 33.8285 6.09867 34.4045 6.472C34.9912 6.84533 35.4498 7.37867 35.7805 8.072C36.1218 8.76533 36.2925 9.576 36.2925 10.504C36.2925 11.432 36.1218 12.248 35.7805 12.952C35.4498 13.6453 34.9912 14.1787 34.4045 14.552C33.8285 14.9253 33.1832 15.112 32.4685 15.112C31.8605 15.112 31.3325 14.9893 30.8845 14.744C30.4472 14.4987 30.1005 14.168 29.8445 13.752V19.288H26.7085V6.024H29.8445V7.272ZM33.1085 10.504C33.1085 9.91733 32.9485 9.464 32.6285 9.144C32.3192 8.81333 31.9352 8.648 31.4765 8.648C31.0178 8.648 30.6285 8.81333 30.3085 9.144C29.9992 9.47467 29.8445 9.928 29.8445 10.504C29.8445 11.0907 29.9992 11.5493 30.3085 11.88C30.6285 12.2107 31.0178 12.376 31.4765 12.376C31.9352 12.376 32.3192 12.2107 32.6285 11.88C32.9485 11.5387 33.1085 11.08 33.1085 10.504ZM46.1595 10.408C46.1595 10.6533 46.1435 10.8987 46.1115 11.144H40.1755C40.2075 11.6347 40.3408 12.0027 40.5755 12.248C40.8208 12.4827 41.1302 12.6 41.5035 12.6C42.0262 12.6 42.3995 12.3653 42.6235 11.896H45.9675C45.8288 12.5147 45.5568 13.0693 45.1515 13.56C44.7568 14.04 44.2555 14.4187 43.6475 14.696C43.0395 14.9733 42.3675 15.112 41.6315 15.112C40.7462 15.112 39.9568 14.9253 39.2635 14.552C38.5808 14.1787 38.0422 13.6453 37.6475 12.952C37.2635 12.2587 37.0715 11.4427 37.0715 10.504C37.0715 9.56533 37.2635 8.75467 37.6475 8.072C38.0315 7.37867 38.5648 6.84533 39.2475 6.472C39.9408 6.09867 40.7355 5.912 41.6315 5.912C42.5168 5.912 43.3008 6.09333 43.9835 6.456C44.6662 6.81867 45.1995 7.34133 45.5835 8.024C45.9675 8.696 46.1595 9.49067 46.1595 10.408ZM42.9595 9.624C42.9595 9.24 42.8315 8.94133 42.5755 8.728C42.3195 8.504 41.9995 8.392 41.6155 8.392C41.2315 8.392 40.9168 8.49867 40.6715 8.712C40.4262 8.91467 40.2662 9.21867 40.1915 9.624H42.9595ZM53.3149 5.944C54.3495 5.944 55.1709 6.29067 55.7789 6.984C56.3869 7.66667 56.6909 8.59467 56.6909 9.768V15H53.5549V10.184C53.5549 9.672 53.4215 9.272 53.1549 8.984C52.8882 8.68533 52.5309 8.536 52.0829 8.536C51.6135 8.536 51.2455 8.68533 50.9789 8.984C50.7122 9.272 50.5789 9.672 50.5789 10.184V15H47.4429V6.024H50.5789V7.304C50.8562 6.89867 51.2295 6.57333 51.6989 6.328C52.1682 6.072 52.7069 5.944 53.3149 5.944ZM62.2356 15.112C61.425 15.112 60.6996 14.9787 60.0596 14.712C59.4303 14.4347 58.929 14.0613 58.5556 13.592C58.193 13.112 57.9903 12.5733 57.9476 11.976H60.9876C61.0303 12.264 61.1636 12.488 61.3876 12.648C61.6116 12.808 61.889 12.888 62.2196 12.888C62.4756 12.888 62.6783 12.8347 62.8276 12.728C62.977 12.6213 63.0516 12.4827 63.0516 12.312C63.0516 12.088 62.929 11.9227 62.6836 11.816C62.4383 11.7093 62.033 11.592 61.4676 11.464C60.8276 11.336 60.2943 11.192 59.8676 11.032C59.441 10.872 59.0676 10.6107 58.7476 10.248C58.4383 9.88533 58.2836 9.39467 58.2836 8.776C58.2836 8.24267 58.4276 7.76267 58.7156 7.336C59.0036 6.89867 59.425 6.552 59.9796 6.296C60.545 6.04 61.2223 5.912 62.0116 5.912C63.185 5.912 64.1076 6.2 64.7796 6.776C65.4516 7.352 65.841 8.10933 65.9476 9.048H63.1156C63.0623 8.76 62.9343 8.54133 62.7316 8.392C62.5396 8.232 62.2783 8.152 61.9476 8.152C61.6916 8.152 61.4943 8.2 61.3556 8.296C61.2276 8.392 61.1636 8.52533 61.1636 8.696C61.1636 8.90933 61.2863 9.07467 61.5316 9.192C61.777 9.29867 62.1716 9.41067 62.7156 9.528C63.3663 9.66667 63.905 9.82133 64.3316 9.992C64.769 10.1627 65.1476 10.44 65.4676 10.824C65.7983 11.1973 65.9636 11.7093 65.9636 12.36C65.9636 12.8827 65.809 13.352 65.4996 13.768C65.201 14.184 64.769 14.5147 64.2036 14.76C63.649 14.9947 62.993 15.112 62.2356 15.112ZM76.0814 10.408C76.0814 10.6533 76.0654 10.8987 76.0334 11.144H70.0974C70.1294 11.6347 70.2627 12.0027 70.4974 12.248C70.7427 12.4827 71.052 12.6 71.4254 12.6C71.948 12.6 72.3214 12.3653 72.5454 11.896H75.8894C75.7507 12.5147 75.4787 13.0693 75.0734 13.56C74.6787 14.04 74.1774 14.4187 73.5694 14.696C72.9614 14.9733 72.2894 15.112 71.5534 15.112C70.668 15.112 69.8787 14.9253 69.1854 14.552C68.5027 14.1787 67.964 13.6453 67.5694 12.952C67.1854 12.2587 66.9934 11.4427 66.9934 10.504C66.9934 9.56533 67.1854 8.75467 67.5694 8.072C67.9534 7.37867 68.4867 6.84533 69.1694 6.472C69.8627 6.09867 70.6574 5.912 71.5534 5.912C72.4387 5.912 73.2227 6.09333 73.9054 6.456C74.588 6.81867 75.1214 7.34133 75.5054 8.024C75.8894 8.696 76.0814 9.49067 76.0814 10.408ZM72.8814 9.624C72.8814 9.24 72.7534 8.94133 72.4974 8.728C72.2414 8.504 71.9214 8.392 71.5374 8.392C71.1534 8.392 70.8387 8.49867 70.5934 8.712C70.348 8.91467 70.188 9.21867 70.1134 9.624H72.8814ZM81.1888 15.112C80.3781 15.112 79.6528 14.9787 79.0128 14.712C78.3834 14.4347 77.8821 14.0613 77.5088 13.592C77.1461 13.112 76.9434 12.5733 76.9008 11.976H79.9408C79.9834 12.264 80.1168 12.488 80.3408 12.648C80.5648 12.808 80.8421 12.888 81.1727 12.888C81.4288 12.888 81.6314 12.8347 81.7808 12.728C81.9301 12.6213 82.0048 12.4827 82.0048 12.312C82.0048 12.088 81.8821 11.9227 81.6368 11.816C81.3914 11.7093 80.9861 11.592 80.4208 11.464C79.7808 11.336 79.2474 11.192 78.8207 11.032C78.3941 10.872 78.0208 10.6107 77.7008 10.248C77.3914 9.88533 77.2368 9.39467 77.2368 8.776C77.2368 8.24267 77.3808 7.76267 77.6688 7.336C77.9568 6.89867 78.3781 6.552 78.9328 6.296C79.4981 6.04 80.1754 5.912 80.9648 5.912C82.1381 5.912 83.0608 6.2 83.7328 6.776C84.4048 7.352 84.7941 8.10933 84.9008 9.048H82.0688C82.0154 8.76 81.8874 8.54133 81.6848 8.392C81.4928 8.232 81.2314 8.152 80.9008 8.152C80.6448 8.152 80.4474 8.2 80.3088 8.296C80.1808 8.392 80.1168 8.52533 80.1168 8.696C80.1168 8.90933 80.2394 9.07467 80.4848 9.192C80.7301 9.29867 81.1248 9.41067 81.6688 9.528C82.3194 9.66667 82.8581 9.82133 83.2848 9.992C83.7221 10.1627 84.1008 10.44 84.4208 10.824C84.7514 11.1973 84.9167 11.7093 84.9167 12.36C84.9167 12.8827 84.7621 13.352 84.4528 13.768C84.1541 14.184 83.7221 14.5147 83.1568 14.76C82.6021 14.9947 81.9461 15.112 81.1888 15.112ZM16.392 22.72V25.216H13.384V34H10.248V25.216H7.272V22.72H16.392ZM20.6883 26.608C21.0403 26.096 21.4669 25.6907 21.9683 25.392C22.4696 25.0933 23.0083 24.944 23.5843 24.944V28.288H22.7043C22.0216 28.288 21.5149 28.4213 21.1843 28.688C20.8536 28.9547 20.6883 29.4187 20.6883 30.08V34H17.5523V25.024H20.6883V26.608ZM24.1965 29.504C24.1965 28.576 24.3618 27.7653 24.6925 27.072C25.0338 26.3787 25.4925 25.8453 26.0685 25.472C26.6552 25.0987 27.3058 24.912 28.0205 24.912C28.6392 24.912 29.1725 25.0347 29.6205 25.28C30.0685 25.5253 30.4152 25.856 30.6605 26.272V25.024H33.7965V34H30.6605V32.752C30.4152 33.168 30.0632 33.4987 29.6045 33.744C29.1565 33.9893 28.6285 34.112 28.0205 34.112C27.3058 34.112 26.6552 33.9253 26.0685 33.552C25.4925 33.1787 25.0338 32.6453 24.6925 31.952C24.3618 31.248 24.1965 30.432 24.1965 29.504ZM30.6605 29.504C30.6605 28.928 30.5005 28.4747 30.1805 28.144C29.8712 27.8133 29.4872 27.648 29.0285 27.648C28.5592 27.648 28.1698 27.8133 27.8605 28.144C27.5512 28.464 27.3965 28.9173 27.3965 29.504C27.3965 30.08 27.5512 30.5387 27.8605 30.88C28.1698 31.2107 28.5592 31.376 29.0285 31.376C29.4872 31.376 29.8712 31.2107 30.1805 30.88C30.5005 30.5493 30.6605 30.0907 30.6605 29.504ZM35.0715 29.504C35.0715 28.576 35.2635 27.7653 35.6475 27.072C36.0315 26.3787 36.5648 25.8453 37.2475 25.472C37.9408 25.0987 38.7302 24.912 39.6155 24.912C40.7568 24.912 41.7168 25.2267 42.4955 25.856C43.2742 26.4747 43.7755 27.344 43.9995 28.464H40.6715C40.4795 27.8773 40.1062 27.584 39.5515 27.584C39.1568 27.584 38.8422 27.7493 38.6075 28.08C38.3835 28.4 38.2715 28.8747 38.2715 29.504C38.2715 30.1333 38.3835 30.6133 38.6075 30.944C38.8422 31.2747 39.1568 31.44 39.5515 31.44C40.1168 31.44 40.4902 31.1467 40.6715 30.56H43.9995C43.7755 31.6693 43.2742 32.5387 42.4955 33.168C41.7168 33.7973 40.7568 34.112 39.6155 34.112C38.7302 34.112 37.9408 33.9253 37.2475 33.552C36.5648 33.1787 36.0315 32.6453 35.6475 31.952C35.2635 31.2587 35.0715 30.4427 35.0715 29.504ZM50.9183 34L48.4383 30.32V34H45.3023V22.16H48.4383V28.544L50.9183 25.024H54.6783L51.1423 29.536L54.7423 34H50.9183ZM64.2376 29.408C64.2376 29.6533 64.2216 29.8987 64.1896 30.144H58.2536C58.2856 30.6347 58.419 31.0027 58.6536 31.248C58.899 31.4827 59.2083 31.6 59.5816 31.6C60.1043 31.6 60.4776 31.3653 60.7016 30.896H64.0456C63.907 31.5147 63.635 32.0693 63.2296 32.56C62.835 33.04 62.3336 33.4187 61.7256 33.696C61.1176 33.9733 60.4456 34.112 59.7096 34.112C58.8243 34.112 58.035 33.9253 57.3416 33.552C56.659 33.1787 56.1203 32.6453 55.7256 31.952C55.3416 31.2587 55.1496 30.4427 55.1496 29.504C55.1496 28.5653 55.3416 27.7547 55.7256 27.072C56.1096 26.3787 56.643 25.8453 57.3256 25.472C58.019 25.0987 58.8136 24.912 59.7096 24.912C60.595 24.912 61.379 25.0933 62.0616 25.456C62.7443 25.8187 63.2776 26.3413 63.6616 27.024C64.0456 27.696 64.2376 28.4907 64.2376 29.408ZM61.0376 28.624C61.0376 28.24 60.9096 27.9413 60.6536 27.728C60.3976 27.504 60.0776 27.392 59.6936 27.392C59.3096 27.392 58.995 27.4987 58.7496 27.712C58.5043 27.9147 58.3443 28.2187 58.2696 28.624H61.0376ZM68.657 26.608C69.009 26.096 69.4357 25.6907 69.937 25.392C70.4383 25.0933 70.977 24.944 71.553 24.944V28.288H70.673C69.9903 28.288 69.4837 28.4213 69.153 28.688C68.8223 28.9547 68.657 29.4187 68.657 30.08V34H65.521V25.024H68.657V26.608Z" fill="#2C18B0"/>
<rect y="2" width="3" height="32" rx="1.5" fill="#2C18B0"/>
</svg>
